<svg width="154" height="155" viewBox="0 0 154 155" fill="none" xmlns="http://www.w3.org/2000/svg">
<path d="M141.167 74.8635H103.95C94.1326 74.8635 87.3951 67.42 87.3951 58.3084V37.6465C87.3951 28.5348 94.1326 21.0918 103.95 21.0918H124.612C133.723 21.0918 141.167 28.5348 141.167 37.6465V74.8635ZM141.167 74.8635C141.167 113.684 133.916 120.101 112.099 133.062M66.6051 74.8635V37.6465C66.6051 28.5348 59.1618 21.0918 50.0501 21.0918H29.3243C19.5068 21.0918 12.7693 28.5348 12.7693 37.6465V58.3084C12.7693 67.42 19.5068 74.8635 29.3243 74.8635H66.541C66.541 113.684 59.2901 120.101 37.4735 133.062" stroke="white" stroke-width="1.5" stroke-linecap="round" stroke-linejoin="round"/>
</svg>
