<svg width="17" height="17" viewBox="0 0 17 17" fill="none" xmlns="http://www.w3.org/2000/svg">
<path d="M8.87435 0.526457C10.119 0.526457 11.3568 0.469126 12.5846 0.526457C15.1716 0.67147 16.8445 2.3172 16.9322 4.91057C17.0132 7.27125 17.0132 9.63193 16.9322 11.9926C16.8479 14.6703 15.1716 16.3464 12.507 16.434C10.1291 16.515 7.74105 16.5184 5.36314 16.434C2.66481 16.343 1.04581 14.8153 0.904144 12.1241C0.779348 9.67398 0.779348 7.21908 0.904144 4.76893C1.04243 2.19242 2.63445 0.708566 5.23497 0.543319C6.44922 0.469126 7.66347 0.543319 8.87435 0.543319V0.526457ZM8.84736 15.0278C10.1324 15.0278 11.4243 15.0986 12.6925 15.0075C14.2946 14.8962 15.3436 13.9958 15.4212 12.4074C15.5493 9.7938 15.5359 7.1667 15.4212 4.5531C15.4225 4.22513 15.359 3.90012 15.2343 3.59678C15.1096 3.29343 14.9261 3.01772 14.6945 2.78549C14.4629 2.55326 14.1876 2.3691 13.8846 2.2436C13.5815 2.11809 13.2566 2.05371 12.9286 2.05415C10.264 1.93949 7.59264 1.93275 4.92803 2.05415C3.39336 2.09125 2.44557 3.10297 2.37474 4.63066C2.26006 7.14984 2.23645 9.67914 2.35113 12.2084C2.43208 14.0026 3.4878 14.9064 5.27882 15.0244C6.46608 15.0716 7.65672 15.0176 8.84736 15.0176V15.0278ZM13.0568 8.51566C13.06 9.34025 12.8179 10.1472 12.361 10.8337C11.9042 11.5202 11.2533 12.0553 10.4914 12.3708C9.72941 12.6863 8.89078 12.768 8.08223 12.6055C7.27369 12.4429 6.53181 12.0435 5.95103 11.4581C5.37025 10.8726 4.97685 10.1276 4.8209 9.31786C4.66495 8.50814 4.7535 7.67033 5.0753 6.91109C5.39709 6.15186 5.93756 5.50553 6.62791 5.05439C7.31826 4.60325 8.12726 4.3677 8.95192 4.37773C10.0423 4.391 11.0838 4.83228 11.8517 5.60638C12.6196 6.38049 13.0524 7.42537 13.0568 8.51566ZM11.6098 8.51566C11.6151 8.16418 11.5511 7.81508 11.4214 7.48835C11.2917 7.16162 11.0989 6.86366 10.8539 6.61152C10.6089 6.35938 10.3166 6.158 9.99374 6.0189C9.67085 5.8798 9.32371 5.80572 8.97216 5.80088C8.43711 5.78754 7.91018 5.93359 7.45836 6.22047C7.00655 6.50734 6.65027 6.92208 6.43482 7.41194C6.21938 7.9018 6.1545 8.44466 6.24844 8.97149C6.34237 9.49831 6.59089 9.98531 6.96237 10.3705C7.33386 10.7558 7.81154 11.0219 8.33467 11.135C8.8578 11.248 9.40275 11.203 9.90022 11.0056C10.3977 10.8082 10.8252 10.4674 11.1284 10.0264C11.4316 9.58542 11.5968 9.06425 11.603 8.52915L11.6098 8.51566ZM13.2153 3.24461C13.0923 3.24161 12.97 3.26414 12.8561 3.31076C12.7423 3.35739 12.6393 3.42711 12.5537 3.51551C12.4682 3.60392 12.4018 3.7091 12.359 3.82442C12.3161 3.93973 12.2976 4.06268 12.3046 4.18551C12.295 4.30806 12.3115 4.43125 12.3528 4.54703C12.3941 4.6628 12.4594 4.76855 12.5444 4.85736C12.6294 4.94617 12.7322 5.01604 12.8461 5.0624C12.9599 5.10876 13.0823 5.13057 13.2052 5.1264C13.3325 5.1416 13.4615 5.13072 13.5845 5.09443C13.7075 5.05814 13.8217 4.9972 13.9204 4.91532C14.019 4.83344 14.0999 4.73234 14.1582 4.61817C14.2165 4.50401 14.251 4.37917 14.2595 4.25127C14.2679 4.12336 14.2503 3.99507 14.2076 3.87421C14.1649 3.75335 14.098 3.64245 14.011 3.54826C13.9241 3.45408 13.8188 3.37858 13.7017 3.32638C13.5847 3.27417 13.4582 3.24635 13.33 3.24461H13.2153Z" fill="#F3F1E5"/>
</svg>
