<svg width="154" height="142" viewBox="0 0 154 142" fill="none" xmlns="http://www.w3.org/2000/svg">
<path d="M12.8334 72.6648H50.05C59.8675 72.6648 66.6051 79.4799 66.6051 87.8224V106.74C66.6051 115.083 59.8675 121.897 50.05 121.897H29.3885C20.2768 121.897 12.8334 115.083 12.8334 106.74V72.6648ZM12.8334 72.6648C12.8334 37.1211 20.0844 31.2464 41.9011 19.3789M87.4592 72.6648H124.676C134.493 72.6648 141.231 79.4799 141.231 87.8224V106.74C141.231 115.083 134.493 121.897 124.676 121.897H104.014C94.9027 121.897 87.4592 115.083 87.4592 106.74V72.6648ZM87.4592 72.6648C87.4592 37.1211 94.7099 31.2464 116.527 19.3789" stroke="white" stroke-width="1.5" stroke-linecap="round" stroke-linejoin="round"/>
</svg>
